<?xml version="1.0" standalone="no"?>
<!DOCTYPE svg PUBLIC "-//W3C//DTD SVG 20010904//EN"
 "http://www.w3.org/TR/2001/REC-SVG-20010904/DTD/svg10.dtd">
<svg version="1.0" xmlns="http://www.w3.org/2000/svg"
 width="848.000000pt" height="250.000000pt" viewBox="0 0 848.000000 250.000000"
 preserveAspectRatio="xMidYMid meet">

<g transform="translate(0.000000,250.000000) scale(0.100000,-0.100000)"
fill="#ffffff" stroke="none">
<path d="M0 1250 l0 -1250 4240 0 4240 0 0 1250 0 1250 -4240 0 -4240 0 0
-1250z m2320 120 c0 -696 -2 -790 -15 -790 -13 0 -15 94 -15 790 0 696 2 790
15 790 13 0 15 -94 15 -790z m-545 545 l25 -24 0 -427 c0 -306 -3 -438 -12
-468 -16 -55 -101 -140 -154 -155 -188 -52 -358 104 -314 287 29 124 161 210
279 183 l41 -9 0 229 c0 177 -3 229 -12 228 -7 0 -134 -24 -283 -52 l-270 -53
-5 -389 c-4 -331 -8 -395 -21 -426 -82 -181 -331 -201 -433 -35 -78 125 -23
297 112 353 38 16 124 20 160 9 l22 -7 0 299 c0 287 1 300 20 317 15 14 120
38 393 91 204 40 385 73 400 73 17 1 37 -8 52 -24z m3276 -256 c61 -21 109
-78 122 -144 9 -47 -3 -57 -63 -53 -50 3 -54 5 -62 33 -10 39 -33 55 -78 55
-25 0 -43 -7 -56 -21 -17 -19 -19 -38 -19 -166 0 -142 0 -145 25 -165 19 -15
34 -19 63 -15 42 6 62 26 71 70 6 27 7 28 63 25 l58 -3 -3 -45 c-3 -54 -42
-115 -92 -145 -27 -15 -52 -20 -105 -20 -92 1 -145 29 -177 94 -21 42 -23 60
-23 206 0 147 2 164 23 207 23 47 54 74 101 88 39 12 114 11 152 -1z m558 -23
c61 -59 66 -79 68 -321 1 -140 -2 -225 -9 -232 -13 -16 -90 -17 -106 -1 -7 7
-12 44 -12 95 l0 83 -79 0 -79 0 -8 -92 -9 -93 -43 -3 c-73 -5 -73 -6 -67 222
5 223 17 285 62 328 42 40 70 48 165 45 80 -2 89 -4 117 -31z m890 0 c42 -29
85 -110 79 -149 -3 -19 -10 -22 -60 -25 l-56 -3 -12 36 c-14 41 -35 55 -84 55
-51 0 -67 -30 -73 -134 -11 -166 12 -236 78 -236 46 0 67 16 79 60 l11 40 59
0 c56 0 60 -2 60 -22 0 -87 -62 -169 -140 -188 -62 -15 -139 -5 -182 23 -18
12 -44 45 -58 72 -23 46 -25 61 -25 190 0 163 12 219 59 264 43 41 76 51 159
47 53 -3 75 -9 106 -30z m1019 -24 c5 -67 -5 -72 -124 -72 l-104 0 0 -50 0
-50 109 0 c78 0 110 -4 114 -12 2 -7 1 -33 -2 -58 l-6 -45 -113 -3 -113 -3 3
-62 3 -62 115 -5 115 -5 3 -43 c2 -24 -2 -49 -7 -56 -15 -18 -326 -22 -337 -5
-11 18 -13 139 -6 376 l5 202 31 3 c17 2 94 1 171 -2 l140 -5 3 -43z m399 30
c48 -25 67 -47 83 -95 25 -79 -9 -169 -79 -209 -23 -13 -41 -27 -41 -31 0 -13
41 -90 58 -109 8 -10 25 -18 37 -18 30 0 45 -19 45 -57 0 -37 -21 -53 -72 -53
-62 0 -94 31 -145 140 -27 55 -54 100 -60 100 -10 0 -13 -28 -13 -108 0 -121
-5 -132 -60 -132 -20 0 -41 5 -48 12 -13 13 -18 544 -4 564 10 17 33 19 153
17 84 -2 116 -6 146 -21z m-4692 -42 l0 -55 -62 -3 -63 -3 -2 -232 -3 -232
-55 0 -55 0 -3 233 -2 232 -59 0 c-64 0 -71 6 -71 60 0 62 -5 61 194 58 l181
-3 0 -55z m195 -156 c7 -253 11 -267 87 -262 80 5 83 17 86 263 l2 210 49 3
c27 2 53 -1 57 -5 5 -5 9 -107 10 -228 2 -205 1 -223 -18 -260 -37 -72 -96
-105 -185 -105 -95 1 -164 48 -189 129 -12 40 -25 430 -15 456 4 13 17 15 58
13 l53 -3 5 -211z m526 159 c19 -32 64 -107 100 -168 l64 -110 2 105 c2 58 3
128 3 155 0 28 4 56 8 63 11 17 96 16 103 -2 7 -18 9 -161 6 -389 l-2 -188
-52 3 c-60 3 -45 -14 -179 208 l-69 114 -2 -129 c-1 -72 -2 -143 -2 -160 -1
-29 -2 -30 -58 -33 l-58 -3 0 289 c0 159 3 292 7 295 3 4 26 7 50 7 42 0 44
-2 79 -57z m742 18 c2 -19 1 -44 -2 -57 -6 -23 -9 -24 -116 -24 l-110 0 0 -50
0 -50 104 0 c71 0 107 -4 114 -12 5 -7 7 -33 3 -58 l-6 -45 -112 -3 -113 -3 0
-64 0 -64 118 -3 117 -3 0 -55 0 -55 -175 0 -175 0 2 283 c2 156 5 287 8 293
4 6 73 8 173 7 l167 -3 3 -34z m1417 -21 l0 -55 -57 -3 -58 -3 0 -222 c0 -160
-3 -226 -12 -235 -16 -16 -95 -15 -105 1 -4 6 -6 112 -5 234 l3 222 -63 3 -63
3 -3 44 c-6 75 -13 72 185 69 l178 -3 0 -55z m683 -62 l3 -118 73 0 c72 0 74
1 80 27 4 14 6 63 5 108 -1 45 1 87 5 94 10 15 103 14 108 -1 4 -14 4 -93 0
-391 l-2 -188 -57 3 -58 3 -3 113 -3 112 -74 0 -75 0 -1 -82 c-2 -78 -3 -105
-7 -135 -1 -9 -21 -13 -57 -13 l-55 0 0 288 c0 159 3 292 7 296 4 4 30 6 58 4
l50 -3 3 -117z"/>
<path d="M1514 1141 c-52 -32 -53 -99 -2 -135 42 -30 91 -17 116 31 18 33 15
59 -10 87 -32 35 -66 41 -104 17z"/>
<path d="M762 987 c-69 -74 32 -179 112 -116 33 26 37 88 6 119 -29 29 -90 27
-118 -3z"/>
<path d="M5419 1541 c-19 -16 -24 -30 -27 -90 l-4 -71 84 0 85 0 -5 58 c-6 76
-17 100 -47 112 -38 15 -60 12 -86 -9z"/>
<path d="M7730 1485 l0 -65 49 0 c27 0 61 4 75 10 22 8 26 16 26 49 0 52 -26
71 -97 71 l-53 0 0 -65z"/>
</g>
</svg>
